Coordinates
version=1
nRows=14
nColumns=24
inDegrees=yes

Units are S.I. units (second, meters, Newtons, ...)
Angles are in degrees.

endheader
time	pelvis_tilt	pelvis_list	pelvis_rotation	pelvis_tx	pelvis_ty	pelvis_tz	hip_flexion_r	hip_adduction_r	hip_rotation_r	knee_angle_r	ankle_angle_r	subtalar_angle_r	mtp_angle_r	hip_flexion_l	hip_adduction_l	hip_rotation_l	knee_angle_l	ankle_angle_l	subtalar_angle_l	mtp_angle_l	lumbar_extension	lumbar_bending	lumbar_rotation
      4.17000000	     -7.74592075	      2.50636616	    -11.01862266	     -2.30210452	     -0.02211903	      0.46364881	     -6.58770391	     -2.22363905	      5.77963487	    -14.12908017	      3.96491621	      6.68606405	      8.50249793	     26.65120808	     -1.78300677	     -2.71169381	     -4.47831189	     -6.74997155	      1.62796449	     13.85206314	      6.35693215	     -0.73364088	     13.78031413
      4.17500000	     -7.78954344	      2.60925769	    -11.12755104	     -2.29479842	     -0.02257698	      0.46300918	     -6.62932861	     -2.50820686	      5.78850445	    -14.75611696	      3.58185142	      7.13801333	      8.96291448	     26.67370499	     -1.61790678	     -2.60772477	     -5.13827350	     -6.83367145	      1.87339110	     13.92996095	      6.61877528	     -0.77072011	     13.89923345
      4.18000000	     -7.84044021	      2.72505391	    -11.20478375	     -2.28743974	     -0.02302504	      0.46228755	     -6.63375733	     -2.80453599	      5.75032280	    -15.43063337	      3.14079798	      7.56920630	      9.46161449	     26.71949693	     -1.41855246	     -2.58366986	     -5.85627274	     -7.03184424	      2.10323494	     14.03239508	      6.89166227	     -0.81892575	     13.98360196
      4.18500000	     -7.89562450	      2.84749138	    -11.26456018	     -2.28005309	     -0.02345018	      0.46150581	     -6.60018992	     -3.10752232	      5.69194671	    -16.15508871	      2.64203330	      7.99652165	     10.00896559	     26.77275419	     -1.20268491	     -2.61153375	     -6.59573879	     -7.34950692	      2.31542446	     14.14997778	      7.16835417	     -0.87303414	     14.06612560
      4.19000000	     -7.95073363	      2.98718044	    -11.29730284	     -2.27262975	     -0.02382509	      0.46066492	     -6.53471999	     -3.42663473	      5.60375098	    -16.92451163	      2.06271426	      8.39983070	     10.56585168	     26.82710293	     -0.95690696	     -2.70801629	     -7.32982267	     -7.80845436	      2.49793963	     14.25713312	      7.44931068	     -0.94636219	     14.14125571
      4.19500000	     -8.01196899	      3.12064286	    -11.32660691	     -2.26526056	     -0.02414363	      0.45978010	     -6.40330202	     -3.74035841	      5.47775917	    -17.76898254	      1.39983889	      8.81286217	     11.28303172	     26.88412035	     -0.72084639	     -2.83443119	     -8.04026435	     -8.39686210	      2.63159500	     14.36333841	      7.72208631	     -1.01105867	     14.18693849
      4.20000000	     -8.06414076	      3.31456251	    -11.32277586	     -2.25780508	     -0.02436917	      0.45885697	     -6.25086520	     -4.11327501	      5.33999832	    -18.65093394	      0.63265067	      9.16137092	     11.89146701	     26.92696188	     -0.41196419	     -3.02382626	     -8.71015406	     -9.09327672	      2.72866955	     14.38836550	      8.00553745	     -1.14493744	     14.24288974
      4.20500000	     -8.11146509	      3.51641920	    -11.28398279	     -2.25039728	     -0.02451419	      0.45786750	     -6.06021185	     -4.49174769	      5.16232067	    -19.58531746	     -0.22484298	      9.49879421	     12.53661600	     26.98755895	     -0.08187476	     -3.23123110	     -9.39417427	     -9.84802321	      2.75246224	     14.33738252	      8.27092265	     -1.29457831	     14.32784363
      4.21000000	     -8.17019873	      3.72577279	    -11.28232270	     -2.24301739	     -0.02457985	      0.45687313	     -5.77137956	     -4.88487453	      4.96918968	    -20.61433092	     -1.22510941	      9.83243875	     13.39575921	     27.02950010	      0.23959243	     -3.36880503	    -10.02090453	    -10.60694339	      2.62111627	     14.16234149	      8.54392745	     -1.43596787	     14.35901078
      4.21500000	     -8.21185678	      3.90838330	    -11.24457143	     -2.23570057	     -0.02454229	      0.45582165	     -5.47077619	     -5.24260337	      4.78299949	    -21.66318623	     -2.40872018	     10.05080712	     14.39252645	     27.06923884	      0.56080562	     -3.40684807	    -10.68457213	    -11.32656076	      2.32928890	     13.79076442	      8.77615727	     -1.56125657	     14.39671310
      4.22000000	     -8.23489666	      4.09872821	    -11.18956809	     -2.22841214	     -0.02441611	      0.45476690	     -5.14291580	     -5.59913216	      4.61244002	    -22.76232879	     -3.73854031	     10.16105310	     15.40333606	     27.10204158	      0.90426672	     -3.39299460	    -11.38653879	    -11.92882886	      1.97216374	     13.20420698	      8.97837458	     -1.70324868	     14.46102400
      4.22500000	     -8.25429061	      4.29689293	    -11.14691843	     -2.22111535	     -0.02423085	      0.45376136	     -4.75661234	     -5.95117758	      4.47746427	    -23.93408692	     -5.22663524	     10.16930803	     16.39715020	     27.12274182	      1.25673531	     -3.33668359	    -12.10472790	    -12.35074439	      1.53741438	     12.41381873	      9.17658654	     -1.85728748	     14.51857103
      4.23000000	     -8.26147770	      4.46602747	    -11.10872149	     -2.21386221	     -0.02400897	      0.45278149	     -4.32639632	     -6.25998818	      4.36687172	    -25.16925988	     -6.88688608	     10.04953523	     17.45177720	     27.13089587	      1.59022646	     -3.21703033	    -12.86701414	    -12.54632540	      1.03559427	     11.44582959	      9.34706088	     -1.98742876	     14.57362901
      4.23500000	     -8.26306190	      4.61291240	    -11.07429384	     -2.20667046	     -0.02376123	      0.45183770	     -3.84495302	     -6.52603802	      4.30015988	    -26.46280322	     -8.71397531	      9.79302251	     18.55711384	     27.13028649	      1.90817149	     -3.06679943	    -13.66087514	    -12.52094981	      0.52438829	     10.36547070	      9.48865637	     -2.09941776	     14.62908523
